<svg xmlns="http://www.w3.org/2000/svg" xml:space="preserve" width="1280" height="630" viewBox="0 0 63.5 33.337" overflow="hidden">
  <defs>
    <clipPath id="clipArea">
      <rect x="0" y="0" width="63.5" height="33.337" />
    </clipPath>
  </defs>

  <g clip-path="url(#clipArea)">
    <rect fill="#43b6c4" x="0" y="0" width="63.5" height="33.337" />
    <path fill="#a0dfe7" d="M10.053 1.059v.529h-.529v.53h-.529v1.057H6.878v.53h-.529v.529H5.82v1.058H4.232v.53h-.529v.528h-.529v1.588H1.587v.53h-.53v.528H.528v.53h-.529v.529H-.53v.529h-.53v1.587h-.528v.53h-.53v2.116h.53v1.058h-.53v2.117h.53v.53h25.4v-.53h.529v-2.117h-.53v-.529h.53V13.23h-.53v-.53h-.529v-1.587h-.529v-.53h-.529v-.528h-1.587v-.53h-.53V6.88h-.529v-.53h-.529v-.529h-1.587V4.763h-.53v-.53h-.529v-.528h-.529V2.646h-.529v-.529h-.53v-.529H12.17v-.53zm37.571 0v.529h-.529v.53h-2.117v.528h-.529v.53h-.529v.529h-.53v.529h-.528v.529h-.53v.53h-2.116v.528h-.53v.53h-.529v2.116h-.529v2.117h.53v.529h-.53v.53h-2.116v.528h-.53v.53h-.529v2.116h.53v.53h.529v.528h.529v1.059h.529v.529h.53v.53h.528v.528H64.03v-2.116h-.53v-.53h-.529v-1.587h-.53v-.53h-.528v-.528h-2.117v-.53h-.53v-.529h-.528v-.529h-.53v-.529h-.529v-1.058h.53V7.938h-.53v-.53h-.529V5.821h-.529v-.529h-.53v-.529h-2.116V3.705h-.529v-.53h-.53v-.529H50.8v-.529h-.529v-.529h-.53v-.53z">
      <animateTransform attributeName="transform" attributeType="XML" type="translate" calcMode="discrete" dur="2s" keySplines="0.25 0.1 0.25 1;0.25 0.1 0.25 1" keyTimes="0;0.5;1" values="0 0; 0.3 0; 0 0" repeatCount="indefinite" />
    </path>
    <path fill="#a0dfe7" d="M62.971 1.059v.529h.529v.53h.529v1.057h2.117v.53h.529v.529h.529v1.058h1.588v.53h.529v.528h.529v1.588h1.587v.53h.53v.528h.529v.53h.529v.529h.529v.529h.53v1.587h.528v.53h.53v2.116h-.53v1.058h.53v2.117h-.53v.53h-25.4v-.53h-.529v-2.117h.53v-.529h-.53V13.23h.53v-.53h.529v-1.587h.529v-.53h.529v-.528h1.587v-.53h.53V6.88h.529v-.53h.529v-.529h1.587V4.763h.53v-.53h.529v-.528h.529V2.646h.529v-.529h.53v-.529h2.645v-.53zm-37.571 0v.529h.529v.53h2.117v.528h.529v.53h.529v.529h.53v.529h.528v.529h.53v.53h2.116v.528h.53v.53h.529v2.116h.529v2.117h-.53v.529h.53v.53h2.116v.528h.53v.53h.529v2.116h-.53v.53h-.529v.528h-.529v1.059h-.529v.529h-.53v.53h-.528v.528H8.994v-2.116h.53v-.53h.529v-1.587h.53v-.53h.528v-.528h2.117v-.53h.53v-.529h.528v-.529h.53v-.529h.529v-1.058h-.53V7.938h.53v-.53h.529V5.821h.529v-.529h.53v-.529h2.116V3.705h.529v-.53h.53v-.529h2.116v-.529h.529v-.529h.53v-.53z">
      <animateTransform attributeName="transform" attributeType="XML" type="translate" calcMode="discrete" dur="3s" keySplines="0.25 0.1 0.25 1;0.25 0.1 0.25 1" keyTimes="0;0.5;1" values="0 0; -0.4 0; 0 0" repeatCount="indefinite" />
    </path>

    <path fill="#78d410" d="M25.4 10.053v.53h-.53v.53h-.528v.528h-.53v.53h-.529v2.645h.53v1.059h-.53v.529h-.529v1.587h17.992v-1.588h-.53v-.528h-.529v-1.059h.53V12.17h-.53v-.529h-.529v-.529h-.529v-.529H38.1v-.53h-2.117v.53h-.529v.53h-.529v.528h-.53v.53h-5.291v-.53h-.529v-.529h-.53v-.529h-.528v-.53z"/>
    <path fill="#284359" d="M25.93 12.17v.53h-.53v1.058h.53v.53h1.058v-.53h.529V12.7h-.53v-.53zm11.112 0v.53h-.53v1.058h.53v.53H38.1v-.53h.53V12.7h-.53v-.53z"/>
    <path fill="#a0ea4e" d="M25.4 10.053v.53h-.53v.53h-.528v.528h-.53v.53h-.529v2.645h.53v1.059h-.53v.529h-.529v1.587h.53v-1.058h.528v-.53h.53v-2.116h-.53V12.7h.53v-.53h.529v-.529h.529v-.529h.53v-.529h1.587v-.53z"/>
    <path fill="#61a812" d="M39.687 12.17v2.118h-.529v2.116h.53v.529h.529v1.058h.529v-1.588h-.53v-.528h-.529v-1.059h.53V12.17z"/>
    <path fill="#baf775" d="M27.517 14.816v.53h-1.059v.529H25.4v.529h-1.058v.529h-.53v1.058h16.405v-1.058h-.53v-.53H38.63v-.528h-1.06v-.53h-1.058v-.529z"/>

    <rect fill="#2a8676" x="0" y="17.99" width="63.5" height="33.337" />
    <path fill="#53ceb9" d="M10.053 35.454v-.529h-.529v-.53h-.529v-1.057H6.878v-.53h-.529v-.529H5.82v-1.058H4.232v-.53h-.529v-.528h-.529v-1.588H1.587v-.53h-.53v-.528H.528v-.53h-.529v-.529H-.53v-.529h-.53v-1.587h-.528v-.53h-.53v-2.116h.53v-1.058h-.53v-2.117h.53v-.53h25.4v.53h.529v2.117h-.53v.529h.53v2.116h-.53v.53h-.529V25.4h-.529v.53h-.529v.528h-1.587v.53h-.53v2.645h-.529v.53h-.529v.529h-1.587v1.058h-.53v.53h-.529v.528h-.529v1.059h-.529v.529h-.53v.529H12.17v.53zm37.571 0v-.529h-.529v-.53h-2.117v-.528h-.529v-.53h-.529v-.529h-.53v-.529h-.528v-.529h-.53v-.53h-2.116v-.528h-.53v-.53h-.529v-2.116h-.529v-2.117h.53V25.4h-.53v-.53h-2.116v-.528h-.53v-.53h-.529v-2.116h.53v-.53h.529v-.528h.529v-1.059h.529v-.529h.53v-.53h.528v-.528H64.03v2.116h-.53v.53h-.529v1.587h-.53v.53h-.528v.528h-2.117v.53h-.53v.529h-.528v.529h-.53v.529h-.529v1.058h.53v2.117h-.53v.53h-.529v1.587h-.529v.529h-.53v.529h-2.116v1.058h-.529v.53h-.53v.529H50.8v.529h-.529v.529h-.53v.53z">
      <animateTransform attributeName="transform" attributeType="XML" type="translate" calcMode="discrete" dur="2s" keySplines="0.25 0.1 0.25 1;0.25 0.1 0.25 1" keyTimes="0;0.5;1" values="0 0; 0.3 0; 0 0" repeatCount="indefinite" />
    </path>
    <path fill="#53ceb9" d="M62.971 35.454v-.529h.529v-.53h.529v-1.057h2.117v-.53h.529v-.529h.529v-1.058h1.588v-.53h.529v-.528h.529v-1.588h1.587v-.53h.53v-.528h.529v-.53h.529v-.529h.529v-.529h.53v-1.587h.528v-.53h.53v-2.116h-.53v-1.058h.53v-2.117h-.53v-.53h-25.4v.53h-.529v2.117h.53v.529h-.53v2.116h.53v.53h.529V25.4h.529v.53h.529v.528h1.587v.53h.53v2.645h.529v.53h.529v.529h1.587v1.058h.53v.53h.529v.528h.529v1.059h.529v.529h.53v.529h2.645v.53zm-37.571 0v-.529h.529v-.53h2.117v-.528h.529v-.53h.529v-.529h.53v-.529h.528v-.529h.53v-.53h2.116v-.528h.53v-.53h.529v-2.116h.529v-2.117h-.53V25.4h.53v-.53h2.116v-.528h.53v-.53h.529v-2.116h-.53v-.53h-.529v-.528h-.529v-1.059h-.529v-.529h-.53v-.53h-.528v-.528H8.994v2.116h.53v.53h.529v1.587h.53v.53h.528v.528h2.117v.53h.53v.529h.528v.529h.53v.529h.529v1.058h-.53v2.117h.53v.53h.529v1.587h.529v.529h.53v.529h2.116v1.058h.529v.53h.53v.529h2.116v.529h.529v.529h.53v.53z">
      <animateTransform attributeName="transform" attributeType="XML" type="translate" calcMode="discrete" dur="3s" keySplines="0.25 0.1 0.25 1;0.25 0.1 0.25 1" keyTimes="0;0.5;1" values="0 0; -0.4 0; 0 0" repeatCount="indefinite" />
    </path>

    <path fill="#38af69" d="M25.4 25.93v-.53h-.53v-.53h-.528v-.528h-.53v-.53h-.529v-2.645h.53v-1.059h-.53v-.529h-.529v-1.587h17.992v1.588h-.53v.528h-.529v1.059h.53v2.646h-.53v.529h-.529v.529h-.529v.529H38.1v.53h-2.117v-.53h-.529v-.53h-.529v-.528h-.53v-.53h-5.291v.53h-.529v.529h-.53v.529h-.528v.53h-1.588z"/>
    <path fill="#206447" d="M25.93 23.813v-.53h-.53v-1.058h.53v-.53h1.058v.53h.529v1.058h-.53v.53h-.529zm11.112 0v-.53h-.53v-1.058h.53v-.53H38.1v.53h.53v1.058h-.53v.53h-.53z"/>
    <path fill="#36bf8b" d="M25.4 25.93v-.53h-.53v-.53h-.528v-.528h-.53v-.53h-.529v-2.645h.53v-1.059h-.53v-.529h-.529v-1.587h.53v1.058h.528v.53h.53v2.116h-.53v1.587h.53v.53h.529v.529h.529v.529h.53v.529h1.587v.53h-1.588z"/>
    <path fill="#279664" d="M39.687 23.813v-2.118h-.529v-2.116h.53v-.529h.529v-1.058h.529v1.588h-.53v.528h-.529v1.059h.53v2.646z"/>
    <path fill="#3cd08f" d="M27.517 21.167v-.53h-1.059v-.529H25.4v-.529h-1.058v-.529h-.53v-1.058h16.405v1.058h-.53v.53H38.63v.528h-1.06v.53h-1.058v.529h-.529z"/>
  </g>
</svg>