<?xml version="1.0" encoding="UTF-8" standalone="no"?>
<svg
   width="800"
   height="800"
   version="1.1"
   id="svg5"
   sodipodi:docname="mako.svg"
   inkscape:version="1.4 (e7c3feb100, 2024-10-09)"
   inkscape:export-filename="mako.png"
   inkscape:export-xdpi="96"
   inkscape:export-ydpi="96"
   xmlns:inkscape="http://www.inkscape.org/namespaces/inkscape"
   xmlns:sodipodi="http://sodipodi.sourceforge.net/DTD/sodipodi-0.dtd"
   xmlns="http://www.w3.org/2000/svg"
   xmlns:svg="http://www.w3.org/2000/svg">
  <defs
     id="defs5" />
  <sodipodi:namedview
     id="namedview5"
     pagecolor="#ffffff"
     bordercolor="#000000"
     borderopacity="0.25"
     inkscape:showpageshadow="2"
     inkscape:pageopacity="0.0"
     inkscape:pagecheckerboard="0"
     inkscape:deskcolor="#d1d1d1"
     inkscape:zoom="0.31878547"
     inkscape:cx="94.107176"
     inkscape:cy="705.80382"
     inkscape:window-width="1138"
     inkscape:window-height="998"
     inkscape:window-x="0"
     inkscape:window-y="2"
     inkscape:window-maximized="0"
     inkscape:current-layer="svg5" />
  <rect
     width="799.99585"
     height="799.99585"
     x="0.0041761207"
     y="0.0027761268"
     ry="0"
     style="fill:#242d11;fill-opacity:1;stroke:none;stroke-width:29.1428;stroke-linecap:round;stroke-linejoin:round;stroke-dasharray:none;stroke-opacity:1"
     id="rect1" />
  <path
     d="m 259.31097,245.7535 a 72.891234,72.891234 0 0 0 -72.89123,72.89124 72.891234,72.891234 0 0 0 20.56554,50.50201 216.07846,147.73241 0 0 0 -23.00647,66.00332 216.07846,147.73241 0 0 0 0.19639,1.96396 h 431.77816 a 216.07846,147.73241 0 0 0 0.18236,-1.96396 216.07846,147.73241 0 0 0 -28.6178,-73.43834 72.891234,72.891234 0 0 0 14.3089,-43.06699 72.891234,72.891234 0 0 0 -72.90526,-72.89124 72.891234,72.891234 0 0 0 -68.17771,47.6262 216.07846,147.73241 0 0 0 -60.68658,-5.97607 216.07846,147.73241 0 0 0 -71.50243,8.5152 72.891234,72.891234 0 0 0 -69.24387,-50.16533 z"
     style="fill:none;fill-opacity:1;stroke:#ceff75;stroke-width:25.994;stroke-linecap:round;stroke-linejoin:round;stroke-dasharray:none;stroke-opacity:1"
     id="path1" />
  <circle
     cx="545.75592"
     cy="318.64459"
     r="24.36438"
     style="fill:#ceff75;fill-opacity:1;stroke-width:3.20101;stroke-linecap:round;stroke-linejoin:round"
     id="circle1" />
  <path
     style="fill:none;fill-opacity:1;stroke:#ceff75;stroke-width:25.994;stroke-linecap:round;stroke-linejoin:round;stroke-dasharray:none;stroke-opacity:1"
     d="M 86.636154,437.8816 H 713.47832"
     id="path5" />
  <path
     style="fill:none;fill-opacity:1;stroke:#ceff75;stroke-width:25.994;stroke-linecap:round;stroke-linejoin:round;stroke-dasharray:none;stroke-opacity:1"
     d="M 672.92229,497.88809 H 127.19195"
     id="path6" />
  <path
     style="fill:none;fill-opacity:1;stroke:#ceff75;stroke-width:25.994;stroke-linecap:round;stroke-linejoin:round;stroke-dasharray:none;stroke-opacity:1"
     d="M 68.464935,557.89459 H 731.64932"
     id="path7"
     sodipodi:nodetypes="cc" />
  <circle
     cx="265.75592"
     cy="318.64459"
     r="24.36438"
     style="fill:#ceff75;fill-opacity:1;stroke-width:3.20101;stroke-linecap:round;stroke-linejoin:round"
     id="circle7" />
</svg>
