<svg xmlns="http://www.w3.org/2000/svg" width="800" height="800"><g transform="matrix(16.66667 0 0 16.66667 -8333.333 -4666.667)"><rect width="48" height="48" x="500" y="280" ry="4.207" style="fill:#dbf0b1;fill-opacity:1;stroke:none;stroke-width:.29656;stroke-linecap:round;stroke-linejoin:round;stroke-opacity:1"/><g transform="matrix(.8417 0 0 .8417 82.498 48.77)"><path d="M514.507 292.949a5.196 5.196 0 0 0-5.196 5.196 5.196 5.196 0 0 0 1.466 3.6 15.403 10.531 0 0 0-1.64 4.705 15.403 10.531 0 0 0 .014.14h30.779a15.403 10.531 0 0 0 .013-.14 15.403 10.531 0 0 0-2.04-5.235 5.196 5.196 0 0 0 1.02-3.07 5.196 5.196 0 0 0-5.197-5.196 5.196 5.196 0 0 0-4.86 3.395 15.403 10.531 0 0 0-4.326-.426 15.403 10.531 0 0 0-5.097.607 5.196 5.196 0 0 0-4.936-3.576z" style="fill:#78d410;fill-opacity:1;stroke-width:.564447;stroke-linecap:round;stroke-linejoin:round"/><circle cx="534.926" cy="298.145" r="2.969" style="fill:#3d5f7a;stroke-width:.390069;stroke-linecap:round;stroke-linejoin:round"/><rect width="44.684" height="2.624" x="502.198" y="305.193" ry="1.16" style="fill:#35b3bc;fill-opacity:1;stroke-width:.769458;stroke-linecap:round;stroke-linejoin:round"/><circle cx="515.707" cy="298.145" r="2.969" style="fill:#3d5f7a;stroke-width:.390069;stroke-linecap:round;stroke-linejoin:round"/><rect width="38.902" height="2.624" x="505.089" y="309.613" ry="1.16" style="fill:#35b3bc;fill-opacity:1;stroke-width:.71795;stroke-linecap:round;stroke-linejoin:round"/><rect width="50.126" height="2.624" x="499.477" y="313.747" ry="1.16" style="fill:#35b3bc;fill-opacity:1;stroke-width:.814968;stroke-linecap:round;stroke-linejoin:round"/></g></g></svg>