<?xml version="1.0" encoding="UTF-8" standalone="no"?>
<!-- Created with Inkscape (http://www.inkscape.org/) -->

<svg
   width="240"
   height="126"
   viewBox="0 0 63.499995 33.337499"
   version="1.1"
   id="svg8"
   inkscape:version="1.4 (e7c3feb100, 2024-10-09)"
   sodipodi:docname="mako_preview_2.svg"
   xml:space="preserve"
   inkscape:export-filename="chip_copper.png"
   inkscape:export-xdpi="600"
   inkscape:export-ydpi="600"
   xmlns:inkscape="http://www.inkscape.org/namespaces/inkscape"
   xmlns:sodipodi="http://sodipodi.sourceforge.net/DTD/sodipodi-0.dtd"
   xmlns="http://www.w3.org/2000/svg"
   xmlns:svg="http://www.w3.org/2000/svg"
   xmlns:rdf="http://www.w3.org/1999/02/22-rdf-syntax-ns#"
   xmlns:cc="http://creativecommons.org/ns#"
   xmlns:dc="http://purl.org/dc/elements/1.1/"><defs
     id="defs2" /><sodipodi:namedview
     id="base"
     pagecolor="#ffffff"
     bordercolor="#666666"
     borderopacity="1.0"
     inkscape:pageopacity="0.0"
     inkscape:pageshadow="2"
     inkscape:zoom="2.3909434"
     inkscape:cx="123.17314"
     inkscape:cy="27.604166"
     inkscape:document-units="px"
     inkscape:current-layer="layer1"
     showgrid="true"
     units="px"
     borderlayer="true"
     inkscape:showpageshadow="false"
     inkscape:window-width="1138"
     inkscape:window-height="1000"
     inkscape:window-x="0"
     inkscape:window-y="0"
     inkscape:window-maximized="0"
     inkscape:snap-bbox="true"
     inkscape:object-nodes="false"
     inkscape:snap-others="false"
     fit-margin-top="0"
     fit-margin-left="0"
     fit-margin-right="0"
     fit-margin-bottom="0"
     inkscape:pagecheckerboard="false"
     inkscape:snap-bbox-midpoints="false"
     inkscape:snap-bbox-edge-midpoints="false"
     inkscape:bbox-nodes="true"
     inkscape:deskcolor="#d1d1d1"
     showguides="false"><inkscape:grid
       type="xygrid"
       id="grid815"
       spacingx="0.52916667"
       spacingy="0.52916667"
       empspacing="1"
       dotted="false"
       originx="0"
       originy="0"
       units="px" /></sodipodi:namedview><metadata
     id="metadata5"><rdf:RDF><cc:Work
         rdf:about=""><dc:format>image/svg+xml</dc:format><dc:type
           rdf:resource="http://purl.org/dc/dcmitype/StillImage" /></cc:Work></rdf:RDF></metadata><g
     inkscape:label="Layer 1"
     inkscape:groupmode="layer"
     id="layer1"
     transform="translate(0,-280.06665)"
     style="display:inline"><g
       id="g463"
       transform="rotate(90,17.462501,297.52914)"
       style="fill:#dfbe59;fill-opacity:1"><g
         id="g462"
         transform="translate(0,15.345828)"
         style="fill:#dfbe59;fill-opacity:1" /></g><g
       id="g11"
       transform="rotate(90,17.991667,298.0583)"
       style="fill:#dfbe59;fill-opacity:1"><g
         id="g10"
         transform="translate(0,15.345828)"
         style="fill:#dfbe59;fill-opacity:1" /></g><g
       id="g20"
       transform="rotate(90,18.520833,298.58746)"
       style="fill:#dfbe59;fill-opacity:1"><g
         id="g18"
         transform="translate(0,15.345828)"
         style="fill:#dfbe59;fill-opacity:1" /></g><g
       id="g28"
       transform="rotate(90,19.049999,299.11662)"
       style="fill:#dfbe59;fill-opacity:1"><g
         id="g27"
         transform="translate(0,15.345828)"
         style="fill:#dfbe59;fill-opacity:1" /></g><g
       id="g37"
       transform="rotate(90,19.579165,299.64578)"
       style="fill:#dfbe59;fill-opacity:1"><g
         id="g36"
         transform="translate(0,15.345828)"
         style="fill:#dfbe59;fill-opacity:1" /></g><g
       id="g45"
       transform="rotate(90,20.108331,300.17494)"
       style="fill:#dfbe59;fill-opacity:1"><g
         id="g44"
         transform="translate(0,15.345828)"
         style="fill:#dfbe59;fill-opacity:1" /></g><g
       id="g53"
       transform="rotate(90,20.6375,300.70413)"
       style="fill:#dfbe59;fill-opacity:1"><g
         id="g52"
         transform="translate(0,15.345828)"
         style="fill:#dfbe59;fill-opacity:1" /></g><g
       id="g61"
       transform="rotate(90,21.166666,301.23329)"
       style="fill:#dfbe59;fill-opacity:1"><g
         id="g60"
         transform="translate(0,15.345828)"
         style="fill:#dfbe59;fill-opacity:1" /></g><g
       id="g69"
       transform="rotate(90,21.695832,301.76245)"
       style="fill:#dfbe59;fill-opacity:1"><g
         id="g68"
         transform="translate(0,15.345828)"
         style="fill:#dfbe59;fill-opacity:1" /></g><g
       id="g77"
       transform="rotate(90,22.224998,302.29161)"
       style="fill:#dfbe59;fill-opacity:1"><g
         id="g76"
         transform="translate(0,15.345828)"
         style="fill:#dfbe59;fill-opacity:1" /></g><g
       id="g85"
       transform="rotate(90,22.754164,302.82077)"
       style="fill:#dfbe59;fill-opacity:1"><g
         id="g84"
         transform="translate(0,15.345828)"
         style="fill:#dfbe59;fill-opacity:1" /></g><g
       id="g93"
       transform="rotate(90,23.28333,303.34993)"
       style="fill:#dfbe59;fill-opacity:1"><g
         id="g92"
         transform="translate(0,15.345828)"
         style="fill:#dfbe59;fill-opacity:1" /></g><g
       id="g101"
       transform="rotate(90,23.812502,303.87915)"
       style="fill:#dfbe59;fill-opacity:1"><g
         id="g100"
         transform="translate(0,15.345828)"
         style="fill:#dfbe59;fill-opacity:1" /></g><g
       id="g109"
       transform="rotate(90,24.341668,304.40831)"
       style="fill:#dfbe59;fill-opacity:1"><g
         id="g108"
         transform="translate(0,15.345828)"
         style="fill:#dfbe59;fill-opacity:1" /></g><g
       id="g117"
       transform="rotate(90,24.870834,304.93747)"
       style="fill:#dfbe59;fill-opacity:1"><g
         id="g116"
         transform="translate(0,15.345828)"
         style="fill:#dfbe59;fill-opacity:1" /></g><g
       id="g125"
       transform="rotate(90,25.4,305.46663)"
       style="fill:#dfbe59;fill-opacity:1"><g
         id="g124"
         transform="translate(0,15.345828)"
         style="fill:#dfbe59;fill-opacity:1" /></g><g
       id="g133"
       transform="rotate(90,25.929166,305.99579)"
       style="fill:#dfbe59;fill-opacity:1"><g
         id="g132"
         transform="translate(0,15.345828)"
         style="fill:#dfbe59;fill-opacity:1" /></g><g
       id="g141"
       transform="rotate(90,26.458332,306.52495)"
       style="fill:#dfbe59;fill-opacity:1"><g
         id="g140"
         transform="translate(0,15.345828)"
         style="fill:#dfbe59;fill-opacity:1" /></g><g
       id="g197"
       transform="rotate(90,16.933332,296.99995)"
       style="fill:#dfbe59;fill-opacity:1"><g
         id="g196"
         transform="translate(0,15.345828)"
         style="fill:#dfbe59;fill-opacity:1" /></g><g
       id="g366"
       transform="rotate(90,32.014582,282.44789)"
       style="fill:#dfbe59;fill-opacity:1"><g
         id="g365"
         transform="translate(0,15.345828)"
         style="fill:#dfbe59;fill-opacity:1" /></g><g
       id="g374"
       transform="rotate(90,32.543748,282.97705)"
       style="fill:#dfbe59;fill-opacity:1"><g
         id="g373"
         transform="translate(0,15.345828)"
         style="fill:#dfbe59;fill-opacity:1" /></g><g
       id="g382"
       transform="rotate(90,33.072914,283.50621)"
       style="fill:#dfbe59;fill-opacity:1"><g
         id="g381"
         transform="translate(0,15.345828)"
         style="fill:#dfbe59;fill-opacity:1" /></g><g
       id="g390"
       transform="rotate(90,33.60208,284.03537)"
       style="fill:#dfbe59;fill-opacity:1"><g
         id="g389"
         transform="translate(0,15.345828)"
         style="fill:#dfbe59;fill-opacity:1" /></g><g
       id="g398"
       transform="rotate(90,34.131246,284.56453)"
       style="fill:#dfbe59;fill-opacity:1"><g
         id="g397"
         transform="translate(0,15.345828)"
         style="fill:#dfbe59;fill-opacity:1" /></g><g
       id="g406"
       transform="rotate(90,34.660412,285.09369)"
       style="fill:#dfbe59;fill-opacity:1"><g
         id="g405"
         transform="translate(0,15.345828)"
         style="fill:#dfbe59;fill-opacity:1" /></g><g
       id="g414"
       transform="rotate(90,35.189581,285.62288)"
       style="fill:#dfbe59;fill-opacity:1"><g
         id="g413"
         transform="translate(0,15.345828)"
         style="fill:#dfbe59;fill-opacity:1" /></g><g
       id="g422"
       transform="rotate(90,35.718747,286.15204)"
       style="fill:#dfbe59;fill-opacity:1"><g
         id="g421"
         transform="translate(0,15.345828)"
         style="fill:#dfbe59;fill-opacity:1" /></g><g
       id="g430"
       transform="rotate(90,36.247913,286.6812)"
       style="fill:#dfbe59;fill-opacity:1"><g
         id="g429"
         transform="translate(0,15.345828)"
         style="fill:#dfbe59;fill-opacity:1" /></g><g
       id="g438"
       transform="rotate(90,36.777079,287.21036)"
       style="fill:#dfbe59;fill-opacity:1"><g
         id="g437"
         transform="translate(0,15.345828)"
         style="fill:#dfbe59;fill-opacity:1" /></g><g
       id="g446"
       transform="rotate(90,37.306245,287.73952)"
       style="fill:#dfbe59;fill-opacity:1"><g
         id="g445"
         transform="translate(0,15.345828)"
         style="fill:#dfbe59;fill-opacity:1" /></g><g
       id="g457"
       transform="rotate(90,37.835411,288.26868)"
       style="fill:#dfbe59;fill-opacity:1"><g
         id="g456"
         transform="translate(0,15.345828)"
         style="fill:#dfbe59;fill-opacity:1" /></g><g
       id="g470"
       transform="rotate(90,38.364583,288.7979)"
       style="fill:#dfbe59;fill-opacity:1"><g
         id="g469"
         transform="translate(0,15.345828)"
         style="fill:#dfbe59;fill-opacity:1" /></g><g
       id="g478"
       transform="rotate(90,38.893749,289.32706)"
       style="fill:#dfbe59;fill-opacity:1"><g
         id="g477"
         transform="translate(0,15.345828)"
         style="fill:#dfbe59;fill-opacity:1" /></g><g
       id="g486"
       transform="rotate(90,39.422915,289.85622)"
       style="fill:#dfbe59;fill-opacity:1"><g
         id="g485"
         transform="translate(0,15.345828)"
         style="fill:#dfbe59;fill-opacity:1" /></g><g
       id="g494"
       transform="rotate(90,39.952081,290.38538)"
       style="fill:#dfbe59;fill-opacity:1"><g
         id="g493"
         transform="translate(0,15.345828)"
         style="fill:#dfbe59;fill-opacity:1" /></g><g
       id="g502"
       transform="rotate(90,40.481247,290.91454)"
       style="fill:#dfbe59;fill-opacity:1"><g
         id="g501"
         transform="translate(0,15.345828)"
         style="fill:#dfbe59;fill-opacity:1" /></g><g
       id="g510"
       transform="rotate(90,41.010413,291.4437)"
       style="fill:#dfbe59;fill-opacity:1"><g
         id="g509"
         transform="translate(0,15.345828)"
         style="fill:#dfbe59;fill-opacity:1" /></g><g
       id="g518"
       transform="rotate(90,31.485413,281.9187)"
       style="fill:#dfbe59;fill-opacity:1"><g
         id="g517"
         transform="translate(0,15.345828)"
         style="fill:#dfbe59;fill-opacity:1" /></g><g
       id="g527"
       transform="translate(3.9e-5,-0.529201)"
       style="fill:#dfbe59;fill-opacity:1"><g
         id="g526"
         transform="translate(0,15.345828)"
         style="fill:#dfbe59;fill-opacity:1" /></g><g
       id="g535"
       transform="translate(3.3e-5,-1.587527)"
       style="fill:#dfbe59;fill-opacity:1"><g
         id="g534"
         transform="translate(0,15.345828)"
         style="fill:#dfbe59;fill-opacity:1" /></g><g
       id="g543"
       transform="translate(2.7e-5,-2.645853)"
       style="fill:#dfbe59;fill-opacity:1"><g
         id="g542"
         transform="translate(0,15.345828)"
         style="fill:#dfbe59;fill-opacity:1" /></g><g
       id="g551"
       transform="translate(2.1e-5,-3.704179)"
       style="fill:#dfbe59;fill-opacity:1"><g
         id="g550"
         transform="translate(0,15.345828)"
         style="fill:#dfbe59;fill-opacity:1" /></g><g
       id="g559"
       transform="translate(1.5e-5,-4.762505)"
       style="fill:#dfbe59;fill-opacity:1"><g
         id="g558"
         transform="translate(0,15.345828)"
         style="fill:#dfbe59;fill-opacity:1" /></g><g
       id="g567"
       transform="translate(9e-6,-5.820831)"
       style="fill:#dfbe59;fill-opacity:1"><g
         id="g566"
         transform="translate(0,15.345828)"
         style="fill:#dfbe59;fill-opacity:1" /></g><g
       id="g575"
       transform="translate(3e-5,-6.87919)"
       style="fill:#dfbe59;fill-opacity:1"><g
         id="g574"
         transform="translate(0,15.345828)"
         style="fill:#dfbe59;fill-opacity:1" /></g><g
       id="g583"
       transform="translate(2.4e-5,-7.937516)"
       style="fill:#dfbe59;fill-opacity:1"><g
         id="g582"
         transform="translate(0,15.345828)"
         style="fill:#dfbe59;fill-opacity:1" /></g><g
       id="g591"
       transform="translate(1.8e-5,-8.995842)"
       style="fill:#dfbe59;fill-opacity:1"><g
         id="g590"
         transform="translate(0,15.345828)"
         style="fill:#dfbe59;fill-opacity:1" /></g><g
       id="g599"
       transform="translate(1.2e-5,-10.054168)"
       style="fill:#dfbe59;fill-opacity:1"><g
         id="g598"
         transform="translate(0,15.345828)"
         style="fill:#dfbe59;fill-opacity:1" /></g><g
       id="g607"
       transform="translate(6e-6,-11.112494)"
       style="fill:#dfbe59;fill-opacity:1"><g
         id="g606"
         transform="translate(0,15.345828)"
         style="fill:#dfbe59;fill-opacity:1" /></g><g
       id="g615"
       transform="translate(0,-12.17082)"
       style="fill:#dfbe59;fill-opacity:1"><g
         id="g614"
         transform="translate(0,15.345828)"
         style="fill:#dfbe59;fill-opacity:1" /></g><g
       id="g623"
       transform="translate(4.8e-5,-13.229212)"
       style="fill:#dfbe59;fill-opacity:1"><g
         id="g622"
         transform="translate(0,15.345828)"
         style="fill:#dfbe59;fill-opacity:1" /></g><g
       id="g631"
       transform="translate(4.2e-5,-14.287538)"
       style="fill:#dfbe59;fill-opacity:1"><g
         id="g630"
         transform="translate(0,15.345828)"
         style="fill:#dfbe59;fill-opacity:1" /></g><g
       id="g698"
       transform="translate(3.6e-5,-15.345864)"
       style="fill:#dfbe59;fill-opacity:1"><g
         id="g697"
         transform="translate(0,15.345828)"
         style="fill:#dfbe59;fill-opacity:1" /></g><g
       id="g706"
       transform="translate(3e-5,-16.40419)"
       style="fill:#dfbe59;fill-opacity:1"><g
         id="g705"
         transform="translate(0,15.345828)"
         style="fill:#dfbe59;fill-opacity:1" /></g><g
       id="g717"
       transform="translate(2.4e-5,-17.462516)"
       style="fill:#dfbe59;fill-opacity:1"><g
         id="g716"
         transform="translate(0,15.345828)"
         style="fill:#dfbe59;fill-opacity:1" /></g><g
       id="g725"
       transform="translate(1.8e-5,-18.520842)"
       style="fill:#dfbe59;fill-opacity:1"><g
         id="g724"
         transform="translate(0,15.345828)"
         style="fill:#dfbe59;fill-opacity:1" /></g><g
       id="g736"
       transform="translate(1.8e-5,0.529158)"
       style="fill:#dfbe59;fill-opacity:1"><g
         id="g735"
         transform="translate(0,15.345828)"
         style="fill:#dfbe59;fill-opacity:1" /></g><g
       id="g745"
       transform="translate(-29.633298,-0.5291981)"
       style="fill:#dfbe59;fill-opacity:1"><g
         id="g744"
         transform="translate(0,15.345828)"
         style="fill:#dfbe59;fill-opacity:1" /></g><g
       id="g756"
       transform="translate(-29.633304,-1.5875241)"
       style="fill:#dfbe59;fill-opacity:1"><g
         id="g755"
         transform="translate(0,15.345828)"
         style="fill:#dfbe59;fill-opacity:1" /></g><g
       id="g764"
       transform="translate(-29.63331,-2.6458501)"
       style="fill:#dfbe59;fill-opacity:1"><g
         id="g763"
         transform="translate(0,15.345828)"
         style="fill:#dfbe59;fill-opacity:1" /></g><g
       id="g775"
       transform="translate(-29.633316,-3.7041761)"
       style="fill:#dfbe59;fill-opacity:1"><g
         id="g774"
         transform="translate(0,15.345828)"
         style="fill:#dfbe59;fill-opacity:1" /></g><g
       id="g783"
       transform="translate(-29.633322,-4.7625021)"
       style="fill:#dfbe59;fill-opacity:1"><g
         id="g782"
         transform="translate(0,15.345828)"
         style="fill:#dfbe59;fill-opacity:1" /></g><g
       id="g791"
       transform="translate(-29.633328,-5.8208281)"
       style="fill:#dfbe59;fill-opacity:1"><g
         id="g790"
         transform="translate(0,15.345828)"
         style="fill:#dfbe59;fill-opacity:1" /></g><g
       id="g802"
       transform="translate(-29.633307,-6.8791871)"
       style="fill:#dfbe59;fill-opacity:1"><g
         id="g801"
         transform="translate(0,15.345828)"
         style="fill:#dfbe59;fill-opacity:1" /></g><g
       id="g810"
       transform="translate(-29.633313,-7.9375131)"
       style="fill:#dfbe59;fill-opacity:1"><g
         id="g809"
         transform="translate(0,15.345828)"
         style="fill:#dfbe59;fill-opacity:1" /></g><g
       id="g821"
       transform="translate(-29.633319,-8.9958391)"
       style="fill:#dfbe59;fill-opacity:1"><g
         id="g820"
         transform="translate(0,15.345828)"
         style="fill:#dfbe59;fill-opacity:1" /></g><g
       id="g829"
       transform="translate(-29.633325,-10.054165)"
       style="fill:#dfbe59;fill-opacity:1"><g
         id="g828"
         transform="translate(0,15.345828)"
         style="fill:#dfbe59;fill-opacity:1" /></g><g
       id="g840"
       transform="translate(-29.633331,-11.112491)"
       style="fill:#dfbe59;fill-opacity:1"><g
         id="g839"
         transform="translate(0,15.345828)"
         style="fill:#dfbe59;fill-opacity:1" /></g><g
       id="g848"
       transform="translate(-29.633337,-12.170817)"
       style="fill:#dfbe59;fill-opacity:1"><g
         id="g847"
         transform="translate(0,15.345828)"
         style="fill:#dfbe59;fill-opacity:1" /></g><g
       id="g859"
       transform="translate(-29.633289,-13.229209)"
       style="fill:#dfbe59;fill-opacity:1"><g
         id="g858"
         transform="translate(0,15.345828)"
         style="fill:#dfbe59;fill-opacity:1" /></g><g
       id="g867"
       transform="translate(-29.633295,-14.287535)"
       style="fill:#dfbe59;fill-opacity:1"><g
         id="g866"
         transform="translate(0,15.345828)"
         style="fill:#dfbe59;fill-opacity:1" /></g><g
       id="g878"
       transform="translate(-29.633301,-15.345861)"
       style="fill:#dfbe59;fill-opacity:1"><g
         id="g877"
         transform="translate(0,15.345828)"
         style="fill:#dfbe59;fill-opacity:1" /></g><g
       id="g886"
       transform="translate(-29.633307,-16.404187)"
       style="fill:#dfbe59;fill-opacity:1"><g
         id="g885"
         transform="translate(0,15.345828)"
         style="fill:#dfbe59;fill-opacity:1" /></g><g
       id="g897"
       transform="translate(-29.633313,-17.462513)"
       style="fill:#dfbe59;fill-opacity:1"><g
         id="g896"
         transform="translate(0,15.345828)"
         style="fill:#dfbe59;fill-opacity:1" /></g><g
       id="g905"
       transform="translate(-29.633319,-18.520839)"
       style="fill:#dfbe59;fill-opacity:1"><g
         id="g904"
         transform="translate(0,15.345828)"
         style="fill:#dfbe59;fill-opacity:1" /></g><g
       id="g916"
       transform="translate(-29.633319,0.5291609)"
       style="fill:#dfbe59;fill-opacity:1"><g
         id="g915"
         transform="translate(0,15.345828)"
         style="fill:#dfbe59;fill-opacity:1" /></g><g
       id="g1287"><rect
         style="display:inline;fill:#43b6c4;fill-opacity:1;stroke-width:7.71075;stroke-linecap:round;stroke-linejoin:round"
         id="rect24"
         width="63.500004"
         height="17.991669"
         x="0"
         y="280.06665" /><g
         id="g945"
         style="fill:#a0dfe7;fill-opacity:1"
         transform="translate(-0.52915971,0.52916686)"><path
           id="rect225"
           style="fill:#a0dfe7;fill-opacity:1;stroke-width:7.71075;stroke-linecap:round;stroke-linejoin:round"
           d="m -10.583333,280.59582 v 0.52916 h 0.529167 v 0.52917 h 0.5291665 v 1.05833 h 2.1166666 v 0.52917 h 0.5291666 v 0.52917 h 0.5291666 v 1.05833 h 1.5875 v 0.52917 h 0.5291666 v 0.52916 h 0.5291666 v 1.5875 h 1.5874999 v 0.52917 h 0.5291667 v 0.52917 h 0.5291666 v 0.52916 h 0.52916666 v 0.52917 H 0 v 0.52917 h 0.52916664 v 1.5875 H 1.0583333 v 0.52916 h 0.5291666 v 2.11667 H 1.0583333 v 0.52917 0.52916 h 0.5291666 v 2.11667 H 1.0583333 v 0.52917 H 0.52916664 -1.5874999 -3.7041665 -19.579166 h -2.116666 -2.116667 -0.529166 v -0.52917 h -0.529167 v -2.11667 h 0.529167 v -0.52916 h -0.529167 v -2.11667 h 0.529167 v -0.52917 h 0.529166 v -1.5875 h 0.529167 v -0.52916 h 0.529167 v -0.52917 h 1.587499 v -0.52917 h 0.529167 v -0.52916 -2.11667 h 0.529167 v -0.52917 h 0.529166 v -0.52916 h 1.5875 v -1.05834 h 0.529167 v -0.52916 h 0.529167 v -0.52917 h 0.529166 v -1.05833 h 0.529167 v -0.52917 h 0.529167 v -0.52917 h 2.116666 0.529167 v -0.52916 z m -37.570831,0 v 0.52916 h 0.529167 v 0.52917 h 2.116666 v 0.52917 h 0.529167 v 0.52916 h 0.529166 v 0.52917 h 0.529167 v 0.52917 h 0.529167 v 0.52916 h 0.529166 v 0.52917 h 2.116667 v 0.52917 h 0.529167 v 0.52916 h 0.529166 v 2.11667 h 0.529167 v 2.11667 h -0.529167 v 0.52916 h 0.529167 v 0.52917 h 2.116666 v 0.52917 h 0.529167 v 0.52916 h 0.529167 v 2.11667 h -0.529167 v 0.52917 h -0.529167 v 0.52916 h -0.529166 v 1.05834 h -0.529167 v 0.52916 h -0.529167 v 0.52917 h -0.529166 v 0.52917 h -0.529167 -2.116666 -1.058334 -2.116666 -0.529167 -2.116666 -0.529167 -3.175 -1.058333 -3.175 -0.529167 -7.937499 -0.529167 v -2.11667 h 0.529167 v -0.52917 h 0.529166 v -1.5875 h 0.529167 v -0.52916 h 0.529167 v -0.52917 h 1.5875 0.529166 v -0.52917 h 0.529167 v -0.52916 h 0.529167 v -0.52917 h 0.529166 v -0.52917 h 0.529167 v -0.52916 -0.52917 h -0.529167 v -2.11667 h 0.529167 v -0.52916 h 0.529166 v -0.52917 -1.05833 h 0.529167 v -0.52917 h 0.529167 v -0.52917 h 2.116666 v -1.05833 h 0.529167 v -0.52917 h 0.529167 v -0.52916 h 2.116666 v -0.52917 h 0.529167 v -0.52917 h 0.529166 v -0.52916 z"
           transform="scale(-1,1)" /></g><g
         id="g1521"
         style="fill:#a0dfe7;fill-opacity:1"
         transform="matrix(-1,0,0,1,73.554166,0.52916686)"><path
           id="path1521"
           style="fill:#a0dfe7;fill-opacity:1;stroke-width:7.71075;stroke-linecap:round;stroke-linejoin:round"
           d="m -10.583333,280.59582 v 0.52916 h 0.529167 v 0.52917 h 0.5291665 v 1.05833 h 2.1166666 v 0.52917 h 0.5291666 v 0.52917 h 0.5291666 v 1.05833 h 1.5875 v 0.52917 h 0.5291666 v 0.52916 h 0.5291666 v 1.5875 h 1.5874999 v 0.52917 h 0.5291667 v 0.52917 h 0.5291666 v 0.52916 h 0.52916666 v 0.52917 H 0 v 0.52917 h 0.52916664 v 1.5875 H 1.0583333 v 0.52916 h 0.5291666 v 2.11667 H 1.0583333 v 0.52917 0.52916 h 0.5291666 v 2.11667 H 1.0583333 v 0.52917 H 0.52916664 -1.5874999 -3.7041665 -19.579166 h -2.116666 -2.116667 -0.529166 v -0.52917 h -0.529167 v -2.11667 h 0.529167 v -0.52916 h -0.529167 v -2.11667 h 0.529167 v -0.52917 h 0.529166 v -1.5875 h 0.529167 v -0.52916 h 0.529167 v -0.52917 h 1.587499 v -0.52917 h 0.529167 v -0.52916 -2.11667 h 0.529167 v -0.52917 h 0.529166 v -0.52916 h 1.5875 v -1.05834 h 0.529167 v -0.52916 h 0.529167 v -0.52917 h 0.529166 v -1.05833 h 0.529167 v -0.52917 h 0.529167 v -0.52917 h 2.116666 0.529167 v -0.52916 z m -37.570831,0 v 0.52916 h 0.529167 v 0.52917 h 2.116666 v 0.52917 h 0.529167 v 0.52916 h 0.529166 v 0.52917 h 0.529167 v 0.52917 h 0.529167 v 0.52916 h 0.529166 v 0.52917 h 2.116667 v 0.52917 h 0.529167 v 0.52916 h 0.529166 v 2.11667 h 0.529167 v 2.11667 h -0.529167 v 0.52916 h 0.529167 v 0.52917 h 2.116666 v 0.52917 h 0.529167 v 0.52916 h 0.529167 v 2.11667 h -0.529167 v 0.52917 h -0.529167 v 0.52916 h -0.529166 v 1.05834 h -0.529167 v 0.52916 h -0.529167 v 0.52917 h -0.529166 v 0.52917 h -0.529167 -2.116666 -1.058334 -2.116666 -0.529167 -2.116666 -0.529167 -3.175 -1.058333 -3.175 -0.529167 -7.937499 -0.529167 v -2.11667 h 0.529167 v -0.52917 h 0.529166 v -1.5875 h 0.529167 v -0.52916 h 0.529167 v -0.52917 h 1.5875 0.529166 v -0.52917 h 0.529167 v -0.52916 h 0.529167 v -0.52917 h 0.529166 v -0.52917 h 0.529167 v -0.52916 -0.52917 h -0.529167 v -2.11667 h 0.529167 v -0.52916 h 0.529166 v -0.52917 -1.05833 h 0.529167 v -0.52917 h 0.529167 v -0.52917 h 2.116666 v -1.05833 h 0.529167 v -0.52917 h 0.529167 v -0.52916 h 2.116666 v -0.52917 h 0.529167 v -0.52917 h 0.529166 v -0.52916 z"
           transform="scale(-1,1)" /></g></g><g
       id="g1289"
       transform="matrix(1,0,0,-1,0,596.11663)"><rect
         style="display:inline;fill:#2a8676;fill-opacity:1;stroke-width:7.71075;stroke-linecap:round;stroke-linejoin:round"
         id="rect1287"
         width="63.500004"
         height="17.991669"
         x="0"
         y="280.06665" /><g
         id="g1288"
         style="fill:#53ceb9;fill-opacity:1"
         transform="translate(-0.52916664)"><path
           id="path1287"
           style="fill:#53ceb9;fill-opacity:1;stroke-width:7.71075;stroke-linecap:round;stroke-linejoin:round"
           d="m -10.583333,280.59582 v 0.52916 h 0.529167 v 0.52917 h 0.5291665 v 1.05833 h 2.1166666 v 0.52917 h 0.5291666 v 0.52917 h 0.5291666 v 1.05833 h 1.5875 v 0.52917 h 0.5291666 v 0.52916 h 0.5291666 v 1.5875 h 1.5874999 v 0.52917 h 0.5291667 v 0.52917 h 0.5291666 v 0.52916 h 0.52916666 v 0.52917 H 0 v 0.52917 h 0.52916664 v 1.5875 H 1.0583333 v 0.52916 h 0.5291666 v 2.11667 H 1.0583333 v 0.52917 0.52916 h 0.5291666 v 2.11667 H 1.0583333 v 0.52917 H 0.52916664 -1.5874999 -3.7041665 -19.579166 h -2.116666 -2.116667 -0.529166 v -0.52917 h -0.529167 v -2.11667 h 0.529167 v -0.52916 h -0.529167 v -2.11667 h 0.529167 v -0.52917 h 0.529166 v -1.5875 h 0.529167 v -0.52916 h 0.529167 v -0.52917 h 1.587499 v -0.52917 h 0.529167 v -0.52916 -2.11667 h 0.529167 v -0.52917 h 0.529166 v -0.52916 h 1.5875 v -1.05834 h 0.529167 v -0.52916 h 0.529167 v -0.52917 h 0.529166 v -1.05833 h 0.529167 v -0.52917 h 0.529167 v -0.52917 h 2.116666 0.529167 v -0.52916 z m -37.570831,0 v 0.52916 h 0.529167 v 0.52917 h 2.116666 v 0.52917 h 0.529167 v 0.52916 h 0.529166 v 0.52917 h 0.529167 v 0.52917 h 0.529167 v 0.52916 h 0.529166 v 0.52917 h 2.116667 v 0.52917 h 0.529167 v 0.52916 h 0.529166 v 2.11667 h 0.529167 v 2.11667 h -0.529167 v 0.52916 h 0.529167 v 0.52917 h 2.116666 v 0.52917 h 0.529167 v 0.52916 h 0.529167 v 2.11667 h -0.529167 v 0.52917 h -0.529167 v 0.52916 h -0.529166 v 1.05834 h -0.529167 v 0.52916 h -0.529167 v 0.52917 h -0.529166 v 0.52917 h -0.529167 -2.116666 -1.058334 -2.116666 -0.529167 -2.116666 -0.529167 -3.175 -1.058333 -3.175 -0.529167 -7.937499 -0.529167 v -2.11667 h 0.529167 v -0.52917 h 0.529166 v -1.5875 h 0.529167 v -0.52916 h 0.529167 v -0.52917 h 1.5875 0.529166 v -0.52917 h 0.529167 v -0.52916 h 0.529167 v -0.52917 h 0.529166 v -0.52917 h 0.529167 v -0.52916 -0.52917 h -0.529167 v -2.11667 h 0.529167 v -0.52916 h 0.529166 v -0.52917 -1.05833 h 0.529167 v -0.52917 h 0.529167 v -0.52917 h 2.116666 v -1.05833 h 0.529167 v -0.52917 h 0.529167 v -0.52916 h 2.116666 v -0.52917 h 0.529167 v -0.52917 h 0.529166 v -0.52916 z"
           transform="scale(-1,1)" /></g><g
         id="g1522"
         style="fill:#53ceb9;fill-opacity:1"
         transform="matrix(-1,0,0,1,73.554162,0)"><path
           id="path1522"
           style="fill:#53ceb9;fill-opacity:1;stroke-width:7.71075;stroke-linecap:round;stroke-linejoin:round"
           d="m -10.583333,280.59582 v 0.52916 h 0.529167 v 0.52917 h 0.5291665 v 1.05833 h 2.1166666 v 0.52917 h 0.5291666 v 0.52917 h 0.5291666 v 1.05833 h 1.5875 v 0.52917 h 0.5291666 v 0.52916 h 0.5291666 v 1.5875 h 1.5874999 v 0.52917 h 0.5291667 v 0.52917 h 0.5291666 v 0.52916 h 0.52916666 v 0.52917 H 0 v 0.52917 h 0.52916664 v 1.5875 H 1.0583333 v 0.52916 h 0.5291666 v 2.11667 H 1.0583333 v 0.52917 0.52916 h 0.5291666 v 2.11667 H 1.0583333 v 0.52917 H 0.52916664 -1.5874999 -3.7041665 -19.579166 h -2.116666 -2.116667 -0.529166 v -0.52917 h -0.529167 v -2.11667 h 0.529167 v -0.52916 h -0.529167 v -2.11667 h 0.529167 v -0.52917 h 0.529166 v -1.5875 h 0.529167 v -0.52916 h 0.529167 v -0.52917 h 1.587499 v -0.52917 h 0.529167 v -0.52916 -2.11667 h 0.529167 v -0.52917 h 0.529166 v -0.52916 h 1.5875 v -1.05834 h 0.529167 v -0.52916 h 0.529167 v -0.52917 h 0.529166 v -1.05833 h 0.529167 v -0.52917 h 0.529167 v -0.52917 h 2.116666 0.529167 v -0.52916 z m -37.570831,0 v 0.52916 h 0.529167 v 0.52917 h 2.116666 v 0.52917 h 0.529167 v 0.52916 h 0.529166 v 0.52917 h 0.529167 v 0.52917 h 0.529167 v 0.52916 h 0.529166 v 0.52917 h 2.116667 v 0.52917 h 0.529167 v 0.52916 h 0.529166 v 2.11667 h 0.529167 v 2.11667 h -0.529167 v 0.52916 h 0.529167 v 0.52917 h 2.116666 v 0.52917 h 0.529167 v 0.52916 h 0.529167 v 2.11667 h -0.529167 v 0.52917 h -0.529167 v 0.52916 h -0.529166 v 1.05834 h -0.529167 v 0.52916 h -0.529167 v 0.52917 h -0.529166 v 0.52917 h -0.529167 -2.116666 -1.058334 -2.116666 -0.529167 -2.116666 -0.529167 -3.175 -1.058333 -3.175 -0.529167 -7.937499 -0.529167 v -2.11667 h 0.529167 v -0.52917 h 0.529166 v -1.5875 h 0.529167 v -0.52916 h 0.529167 v -0.52917 h 1.5875 0.529166 v -0.52917 h 0.529167 v -0.52916 h 0.529167 v -0.52917 h 0.529166 v -0.52917 h 0.529167 v -0.52916 -0.52917 h -0.529167 v -2.11667 h 0.529167 v -0.52916 h 0.529166 v -0.52917 -1.05833 h 0.529167 v -0.52917 h 0.529167 v -0.52917 h 2.116666 v -1.05833 h 0.529167 v -0.52917 h 0.529167 v -0.52916 h 2.116666 v -0.52917 h 0.529167 v -0.52917 h 0.529166 v -0.52916 z"
           transform="scale(-1,1)" /></g></g><g
       id="g1516"><path
         id="rect34"
         style="fill:#78d410;fill-opacity:1;stroke:none;stroke-width:7.71075;stroke-linecap:round;stroke-linejoin:round"
         d="M 25.399999 290.12082 L 25.399999 290.64998 L 24.870832 290.64998 L 24.870832 291.17915 L 24.341665 291.17915 L 24.341665 291.70832 L 23.812499 291.70832 L 23.812499 292.23748 L 23.283332 292.23748 L 23.283332 292.76665 L 23.283332 293.29582 L 23.283332 293.82498 L 23.283332 294.35415 L 23.283332 294.88332 L 23.812499 294.88332 L 23.812499 295.41248 L 23.812499 295.94165 L 23.283332 295.94165 L 23.283332 296.47082 L 22.754165 296.47082 L 22.754165 296.99998 L 22.754165 297.52915 L 22.754165 298.05832 L 23.283332 298.05832 L 24.341665 298.05832 L 27.516665 298.05832 L 31.749998 298.05832 L 35.983331 298.05832 L 39.158331 298.05832 L 40.216664 298.05832 L 40.745831 298.05832 L 40.745831 297.52915 L 40.745831 296.99998 L 40.745831 296.47082 L 40.216664 296.47082 L 40.216664 295.94165 L 39.687498 295.94165 L 39.687498 295.41248 L 39.687498 294.88332 L 40.216664 294.88332 L 40.216664 294.35415 L 40.216664 293.82498 L 40.216664 293.29582 L 40.216664 292.76665 L 40.216664 292.23748 L 39.687498 292.23748 L 39.687498 291.70832 L 39.158331 291.70832 L 39.158331 291.17915 L 38.629165 291.17915 L 38.629165 290.64998 L 38.099998 290.64998 L 38.099998 290.12082 L 37.570831 290.12082 L 37.041665 290.12082 L 36.512498 290.12082 L 35.983331 290.12082 L 35.983331 290.64998 L 35.454165 290.64998 L 35.454165 291.17915 L 34.924998 291.17915 L 34.924998 291.70832 L 34.395831 291.70832 L 34.395831 292.23748 L 33.866665 292.23748 L 33.337498 292.23748 L 32.808332 292.23748 L 32.279165 292.23748 L 31.749998 292.23748 L 31.220832 292.23748 L 30.691665 292.23748 L 30.162498 292.23748 L 29.633332 292.23748 L 29.104165 292.23748 L 29.104165 291.70832 L 28.574998 291.70832 L 28.574998 291.17915 L 28.045832 291.17915 L 28.045832 290.64998 L 27.516665 290.64998 L 27.516665 290.12082 L 26.987499 290.12082 L 26.458332 290.12082 L 25.929165 290.12082 L 25.399999 290.12082 z " /><path
         id="rect60"
         style="fill:#284359;fill-opacity:1;stroke:none;stroke-width:6.2958;stroke-linecap:round;stroke-linejoin:round"
         d="M 25.929165 292.23748 L 25.929165 292.76665 L 25.399999 292.76665 L 25.399999 293.29582 L 25.399999 293.82498 L 25.929165 293.82498 L 25.929165 294.35415 L 26.458332 294.35415 L 26.987499 294.35415 L 26.987499 293.82498 L 27.516665 293.82498 L 27.516665 293.29582 L 27.516665 292.76665 L 26.987499 292.76665 L 26.987499 292.23748 L 26.458332 292.23748 L 25.929165 292.23748 z M 37.041665 292.23748 L 37.041665 292.76665 L 36.512498 292.76665 L 36.512498 293.29582 L 36.512498 293.82498 L 37.041665 293.82498 L 37.041665 294.35415 L 37.570831 294.35415 L 38.099998 294.35415 L 38.099998 293.82498 L 38.629165 293.82498 L 38.629165 293.29582 L 38.629165 292.76665 L 38.099998 292.76665 L 38.099998 292.23748 L 37.570831 292.23748 L 37.041665 292.23748 z " /><path
         id="rect54-5"
         style="display:inline;fill:#a0ea4e;fill-opacity:1;stroke:none;stroke-width:7.71075;stroke-linecap:round;stroke-linejoin:round"
         d="M 25.399999 290.12082 L 25.399999 290.64998 L 24.870832 290.64998 L 24.870832 291.17915 L 24.341665 291.17915 L 24.341665 291.70832 L 23.812499 291.70832 L 23.812499 292.23748 L 23.283332 292.23748 L 23.283332 292.76665 L 23.283332 293.29582 L 23.283332 293.82498 L 23.283332 294.35415 L 23.283332 294.88332 L 23.812499 294.88332 L 23.812499 295.41248 L 23.812499 295.94165 L 23.283332 295.94165 L 23.283332 296.47082 L 22.754165 296.47082 L 22.754165 296.99998 L 22.754165 297.52915 L 22.754165 298.05832 L 23.283332 298.05832 L 23.283332 297.52915 L 23.283332 296.99998 L 23.812499 296.99998 L 23.812499 296.47082 L 24.341665 296.47082 L 24.341665 295.94165 L 24.341665 295.41248 L 24.341665 294.88332 L 24.341665 294.35415 L 23.812499 294.35415 L 23.812499 293.82498 L 23.812499 293.29582 L 23.812499 292.76665 L 24.341665 292.76665 L 24.341665 292.23748 L 24.870832 292.23748 L 24.870832 291.70832 L 25.399999 291.70832 L 25.399999 291.17915 L 25.929165 291.17915 L 25.929165 290.64998 L 26.458332 290.64998 L 26.987499 290.64998 L 27.516665 290.64998 L 27.516665 290.12082 L 26.987499 290.12082 L 26.458332 290.12082 L 25.929165 290.12082 L 25.399999 290.12082 z " /><path
         id="rect357"
         style="display:inline;fill:#61a812;fill-opacity:1;stroke:none;stroke-width:7.71075;stroke-linecap:round;stroke-linejoin:round"
         d="M 39.687498 292.23748 L 39.687498 292.76665 L 39.687498 293.29582 L 39.687498 293.82498 L 39.687498 294.35415 L 39.158331 294.35415 L 39.158331 294.88332 L 39.158331 295.41248 L 39.158331 295.94165 L 39.158331 296.47082 L 39.687498 296.47082 L 39.687498 296.99998 L 40.216664 296.99998 L 40.216664 297.52915 L 40.216664 298.05832 L 40.745831 298.05832 L 40.745831 297.52915 L 40.745831 296.99998 L 40.745831 296.47082 L 40.216664 296.47082 L 40.216664 295.94165 L 39.687498 295.94165 L 39.687498 295.41248 L 39.687498 294.88332 L 40.216664 294.88332 L 40.216664 294.35415 L 40.216664 293.82498 L 40.216664 293.29582 L 40.216664 292.76665 L 40.216664 292.23748 L 39.687498 292.23748 z " /><path
         id="rect372"
         style="display:inline;fill:#baf775;fill-opacity:1;stroke:none;stroke-width:7.71075;stroke-linecap:round;stroke-linejoin:round"
         d="M 27.516665 294.88332 L 27.516665 295.41248 L 26.458332 295.41248 L 26.458332 295.94165 L 25.399999 295.94165 L 25.399999 296.47082 L 24.341665 296.47082 L 24.341665 296.99998 L 23.812499 296.99998 L 23.812499 297.52915 L 23.812499 298.05832 L 24.341665 298.05832 L 25.399999 298.05832 L 26.458332 298.05832 L 27.516665 298.05832 L 37.041665 298.05832 L 37.570831 298.05832 L 38.629165 298.05832 L 39.158331 298.05832 L 39.687498 298.05832 L 40.216664 298.05832 L 40.216664 297.52915 L 40.216664 296.99998 L 39.687498 296.99998 L 39.687498 296.47082 L 39.158331 296.47082 L 38.629165 296.47082 L 38.629165 295.94165 L 38.099998 295.94165 L 37.570831 295.94165 L 37.570831 295.41248 L 37.041665 295.41248 L 36.512498 295.41248 L 36.512498 294.88332 L 35.983331 294.88332 L 27.516665 294.88332 z " /></g><g
       id="g1520"
       transform="matrix(1,0,0,-1,5.3121032e-6,596.11669)"><path
         id="path1516"
         style="fill:#38af69;fill-opacity:1;stroke:none;stroke-width:7.71075;stroke-linecap:round;stroke-linejoin:round"
         d="m 25.399999,290.12082 v 0.52916 h -0.529167 v 0.52917 h -0.529167 v 0.52917 h -0.529166 v 0.52916 h -0.529167 v 0.52917 0.52917 0.52916 0.52917 0.52917 h 0.529167 v 0.52916 0.52917 h -0.529167 v 0.52917 h -0.529167 v 0.52916 0.52917 0.52917 h 0.529167 1.058333 3.175 4.233333 4.233333 3.175 1.058333 0.529167 v -0.52917 -0.52917 -0.52916 h -0.529167 v -0.52917 h -0.529166 v -0.52917 -0.52916 h 0.529166 v -0.52917 -0.52917 -0.52916 -0.52917 -0.52917 h -0.529166 v -0.52916 h -0.529167 v -0.52917 h -0.529166 v -0.52917 h -0.529167 v -0.52916 h -0.529167 -0.529166 -0.529167 -0.529167 v 0.52916 h -0.529166 v 0.52917 h -0.529167 v 0.52917 h -0.529167 v 0.52916 h -0.529166 -0.529167 -0.529166 -0.529167 -0.529167 -0.529166 -0.529167 -0.529167 -0.529166 -0.529167 v -0.52916 h -0.529167 v -0.52917 h -0.529166 v -0.52917 h -0.529167 v -0.52916 h -0.529166 -0.529167 -0.529167 z" /><path
         id="path1517"
         style="fill:#206447;fill-opacity:1;stroke:none;stroke-width:6.2958;stroke-linecap:round;stroke-linejoin:round"
         d="m 25.929165,292.23748 v 0.52917 h -0.529166 v 0.52917 0.52916 h 0.529166 v 0.52917 h 0.529167 0.529167 v -0.52917 h 0.529166 v -0.52916 -0.52917 h -0.529166 v -0.52917 h -0.529167 z m 11.1125,0 v 0.52917 h -0.529167 v 0.52917 0.52916 h 0.529167 v 0.52917 h 0.529166 0.529167 v -0.52917 h 0.529167 v -0.52916 -0.52917 h -0.529167 v -0.52917 h -0.529167 z" /><path
         id="path1518"
         style="display:inline;fill:#36bf8b;fill-opacity:1;stroke:none;stroke-width:7.71075;stroke-linecap:round;stroke-linejoin:round"
         d="m 25.399999,290.12082 v 0.52916 h -0.529167 v 0.52917 h -0.529167 v 0.52917 h -0.529166 v 0.52916 h -0.529167 v 0.52917 0.52917 0.52916 0.52917 0.52917 h 0.529167 v 0.52916 0.52917 h -0.529167 v 0.52917 h -0.529167 v 0.52916 0.52917 0.52917 h 0.529167 v -0.52917 -0.52917 h 0.529167 v -0.52916 h 0.529166 v -0.52917 -0.52917 -0.52916 -0.52917 h -0.529166 v -0.52917 -0.52916 -0.52917 h 0.529166 v -0.52917 h 0.529167 v -0.52916 h 0.529167 v -0.52917 h 0.529166 v -0.52917 h 0.529167 0.529167 0.529166 v -0.52916 h -0.529166 -0.529167 -0.529167 z" /><path
         id="path1519"
         style="display:inline;fill:#279664;fill-opacity:1;stroke:none;stroke-width:7.71075;stroke-linecap:round;stroke-linejoin:round"
         d="m 39.687498,292.23748 v 0.52917 0.52917 0.52916 0.52917 h -0.529167 v 0.52917 0.52916 0.52917 0.52917 h 0.529167 v 0.52916 h 0.529166 v 0.52917 0.52917 h 0.529167 v -0.52917 -0.52917 -0.52916 h -0.529167 v -0.52917 h -0.529166 v -0.52917 -0.52916 h 0.529166 v -0.52917 -0.52917 -0.52916 -0.52917 -0.52917 z" /><path
         id="path1520"
         style="display:inline;fill:#3cd08f;fill-opacity:1;stroke:none;stroke-width:7.71075;stroke-linecap:round;stroke-linejoin:round"
         d="m 27.516665,294.88332 v 0.52916 h -1.058333 v 0.52917 h -1.058333 v 0.52917 h -1.058334 v 0.52916 h -0.529166 v 0.52917 0.52917 h 0.529166 1.058334 1.058333 1.058333 9.525 0.529166 1.058334 0.529166 0.529167 0.529166 v -0.52917 -0.52917 h -0.529166 v -0.52916 h -0.529167 -0.529166 v -0.52917 h -0.529167 -0.529167 v -0.52917 h -0.529166 -0.529167 v -0.52916 h -0.529167 z" /></g></g></svg>
