<?xml version="1.0" encoding="UTF-8" standalone="no"?>
<svg
   width="800"
   height="800"
   version="1.1"
   id="svg5"
   sodipodi:docname="mako_outline.svg"
   inkscape:version="1.4 (e7c3feb100, 2024-10-09)"
   inkscape:export-filename="mako.png"
   inkscape:export-xdpi="96"
   inkscape:export-ydpi="96"
   xmlns:inkscape="http://www.inkscape.org/namespaces/inkscape"
   xmlns:sodipodi="http://sodipodi.sourceforge.net/DTD/sodipodi-0.dtd"
   xmlns="http://www.w3.org/2000/svg"
   xmlns:svg="http://www.w3.org/2000/svg">
  <defs
     id="defs5" />
  <sodipodi:namedview
     id="namedview5"
     pagecolor="#ffffff"
     bordercolor="#000000"
     borderopacity="0.25"
     inkscape:showpageshadow="2"
     inkscape:pageopacity="0.0"
     inkscape:pagecheckerboard="0"
     inkscape:deskcolor="#d1d1d1"
     inkscape:zoom="0.75285497"
     inkscape:cx="379.22311"
     inkscape:cy="371.91758"
     inkscape:window-width="1138"
     inkscape:window-height="998"
     inkscape:window-x="0"
     inkscape:window-y="2"
     inkscape:window-maximized="0"
     inkscape:current-layer="svg5" />
  <g
     id="rect1">
    <path
       style="fill:#242d11;stroke-linecap:round;stroke-linejoin:round"
       d="M 81.715267,14.062042 H 718.28894 c 37.47911,0 67.65182,30.172714 67.65182,67.651825 V 718.28754 c 0,37.47911 -30.17271,67.65182 -67.65182,67.65182 H 81.715267 c -37.479111,0 -67.651825,-30.17271 -67.651825,-67.65182 V 81.713867 c 0,-37.479111 30.172714,-67.651825 67.651825,-67.651825 z"
       id="path2" />
    <path
       style="fill:#ceff75;stroke-linecap:round;stroke-linejoin:round"
       d="m 81.714844,0.00195313 c -45.02475,0 -81.71093775,36.68814087 -81.71093775,81.71289087 V 718.28711 c 0,45.02475 36.68618775,81.71094 81.71093775,81.71094 H 718.28906 C 763.31381,799.99805 800,763.31186 800,718.28711 V 81.714844 C 800,36.690094 763.31381,0.00195313 718.28906,0.00195313 Z m 0,28.11914087 H 718.28906 c 29.93348,0 53.5918,23.658324 53.5918,53.591797 V 718.28711 c 0,29.93347 -23.65832,53.59375 -53.5918,53.59375 H 81.714844 c -29.933473,0 -53.591797,-23.66028 -53.591797,-53.59375 V 81.714844 c 0,-29.933473 23.658324,-53.59375 53.591797,-53.59375 z"
       id="path3" />
  </g>
  <path
     id="path1"
     style="fill:#ceff75;stroke-linecap:round;stroke-linejoin:round"
     d="M 259.31055 232.75586 C 212.02973 232.75586 173.42188 271.36371 173.42188 318.64453 A 12.998299 12.998299 0 0 0 173.42188 318.6875 C 173.48427 337.28875 179.65585 355.22746 190.7168 369.94922 C 179.87318 387.1312 173.32104 405.78162 171.5293 424.88477 L 86.636719 424.88477 A 12.997 12.997 0 0 0 73.638672 437.88086 A 12.997 12.997 0 0 0 86.636719 450.87891 L 713.47852 450.87891 A 12.997 12.997 0 0 0 726.47461 437.88086 A 12.997 12.997 0 0 0 713.47852 424.88477 L 628.63867 424.88477 C 626.57356 402.39306 617.82033 380.58529 603.40039 361.00195 C 610.75674 348.16083 614.76138 333.61042 614.82422 318.69922 A 12.998299 12.998299 0 0 0 614.82422 318.64453 C 614.82422 271.35735 576.2071 232.74676 528.91992 232.75586 A 12.998299 12.998299 0 0 0 528.88672 232.75586 C 496.76592 232.84176 467.69532 250.90338 453.06641 278.85156 C 435.69647 275.96344 417.93089 274.4147 400.0625 274.40625 A 12.998299 12.998299 0 0 0 400.02344 274.40625 C 378.46683 274.46095 357.10037 276.75924 336.42773 280.98438 C 322.1906 251.83876 292.40437 232.76226 259.31445 232.75586 A 12.998299 12.998299 0 0 0 259.31055 232.75586 z M 259.30859 258.75 L 259.31055 258.75 C 285.23985 258.756 308.12084 275.33371 316.20508 299.9707 A 12.998299 12.998299 0 0 0 331.62109 308.54883 C 353.54159 303.22713 376.71433 300.46098 400.07227 300.40039 C 419.76179 300.41109 439.34854 302.34381 458.1875 306.12305 A 12.998299 12.998299 0 0 0 472.93555 297.88477 C 481.61887 274.38555 503.89227 258.82472 528.94336 258.75195 C 562.15947 258.75595 588.80908 285.39536 588.82812 318.60938 C 588.77022 331.35068 584.6543 343.73812 577.07227 353.97852 A 12.998299 12.998299 0 0 0 577.55859 370.0625 C 591.83446 387.08863 600.02335 405.44248 602.36133 424.11719 L 197.7832 424.11719 C 199.86801 407.92036 206.34862 391.95718 217.45703 376.84375 A 12.998299 12.998299 0 0 0 216.31445 360.09766 C 205.52692 348.97449 199.47551 334.11738 199.41797 318.62305 C 199.42967 285.40124 226.08417 258.75106 259.30859 258.75 z M 265.75586 294.2793 A 24.36438 24.36438 0 0 0 241.39062 318.64453 A 24.36438 24.36438 0 0 0 265.75586 343.00977 A 24.36438 24.36438 0 0 0 290.12109 318.64453 A 24.36438 24.36438 0 0 0 265.75586 294.2793 z M 545.75586 294.2793 A 24.36438 24.36438 0 0 0 521.39062 318.64453 A 24.36438 24.36438 0 0 0 545.75586 343.00977 A 24.36438 24.36438 0 0 0 570.12109 318.64453 A 24.36438 24.36438 0 0 0 545.75586 294.2793 z M 127.19141 484.89062 A 12.997 12.997 0 0 0 114.19531 497.88867 A 12.997 12.997 0 0 0 127.19141 510.88477 L 672.92188 510.88477 A 12.997 12.997 0 0 0 685.91992 497.88867 A 12.997 12.997 0 0 0 672.92188 484.89062 L 127.19141 484.89062 z M 68.464844 544.89844 A 12.997 12.997 0 0 0 55.46875 557.89453 A 12.997 12.997 0 0 0 68.464844 570.89062 L 731.64844 570.89062 A 12.997 12.997 0 0 0 744.64648 557.89453 A 12.997 12.997 0 0 0 731.64844 544.89844 L 68.464844 544.89844 z " />
</svg>
