<svg xmlns="http://www.w3.org/2000/svg" xml:space="preserve" width="1200" height="630" viewBox="0 0 317.5 166.688">
  <style>
  .reflection {
      transform-origin: 50% 50%;
      transform-box: fill-box;
    }
  </style>
  <g>
    <path fill="#2a8676" d="M0 0h317.5v166.688H0z"/>

    <path fill="#4ab4ae" d="M0 0h317.5v88.328H0z"/>

    <path fill="#78d410" d="M120.65 40.481v3.175h-3.175v3.175H114.3v3.175h-3.175v3.175h-3.175v15.875h3.175v6.35h-3.175v3.175h-3.175v9.525h107.95v-9.525h-3.175v-3.175h-3.175v-6.35h3.175v-15.875h-3.175v-3.175H203.2v-3.175h-3.175v-3.175h-3.175v-3.175h-12.7v3.175h-3.175v3.175H177.8v3.175h-3.175v3.175h-31.75v-3.175H139.7v-3.175h-3.175v-3.175h-3.175v-3.175h-9.525Z"/>

    <path fill="#284359" d="M123.825 53.181v3.175h-3.175v6.35h3.175v3.175h6.35v-3.175h3.175v-6.35h-3.175v-3.175H127Zm66.675 0v3.175h-3.175v6.35h3.175v3.175h6.35v-3.175h3.175v-6.35h-3.175v-3.175h-3.175z"/>

    <path fill="#a0ea4e" d="M120.65 40.481v3.175h-3.175v3.175H114.3v3.175h-3.175v3.175h-3.175v15.875h3.175v6.35h-3.175v3.175h-3.175v9.525h3.175v-6.35h3.175v-3.175h3.175v-12.7h-3.175v-9.525h3.175v-3.175h3.175v-3.175h3.175v-3.175h3.175v-3.175h9.525v-3.175h-9.525Z"/>

    <path fill="#61a812" d="M206.375 53.181v12.7H203.2v12.7h3.175v3.175h3.175v6.35h3.175v-9.525h-3.175v-3.175h-3.175v-6.35h3.175v-15.875z"/>

    <path fill="#baf775" d="M133.35 69.056v3.175H127v3.175h-6.35v3.175h-6.35v3.175h-3.175v6.35h98.425v-6.35h-3.175v-3.175h-6.35v-3.175h-6.35v-3.175h-6.35v-3.175h-3.175z"/>

    <g class="reflection">
      <path fill="#70e1c4" d="M79.375 88.106v6.35h158.75v-6.35z"/>
      <path fill="#70e1c4" d="M88.9 103.981v6.35h139.7v-6.35z"/>
      <path fill="#70e1c4" d="M76.2 119.856v6.35h165.1v-6.35z" />

      <animateTransform attributeName="transform" attributeType="XML" type="scale" calcMode="discrete" dur="1.3s" keySplines="0.25 0.1 0.25 1;0.25 0.1 0.25 1" keyTimes="0;0.5;1" values="1 1; 1.025 1; 1 1" repeatCount="indefinite" />
    </g>
  </g>
</svg>