<?xml version="1.0" encoding="UTF-8" standalone="no"?>
<!-- Created with Inkscape (http://www.inkscape.org/) -->

<svg
   width="128"
   height="128"
   viewBox="0 0 33.866664 33.866666"
   version="1.1"
   id="svg8"
   inkscape:version="1.4 (e7c3feb100, 2024-10-09)"
   sodipodi:docname="txori_icon_negative.svg"
   xml:space="preserve"
   inkscape:export-filename="png/txori_icon_negative..png"
   inkscape:export-xdpi="600"
   inkscape:export-ydpi="600"
   xmlns:inkscape="http://www.inkscape.org/namespaces/inkscape"
   xmlns:sodipodi="http://sodipodi.sourceforge.net/DTD/sodipodi-0.dtd"
   xmlns="http://www.w3.org/2000/svg"
   xmlns:svg="http://www.w3.org/2000/svg"
   xmlns:rdf="http://www.w3.org/1999/02/22-rdf-syntax-ns#"
   xmlns:cc="http://creativecommons.org/ns#"
   xmlns:dc="http://purl.org/dc/elements/1.1/"><defs
     id="defs2" /><sodipodi:namedview
     id="base"
     pagecolor="#ffffff"
     bordercolor="#666666"
     borderopacity="1.0"
     inkscape:pageopacity="0.0"
     inkscape:pageshadow="2"
     inkscape:zoom="10.24"
     inkscape:cx="64.648437"
     inkscape:cy="56.738281"
     inkscape:document-units="px"
     inkscape:current-layer="layer1"
     showgrid="true"
     units="px"
     borderlayer="true"
     inkscape:showpageshadow="false"
     inkscape:window-width="1680"
     inkscape:window-height="1000"
     inkscape:window-x="0"
     inkscape:window-y="0"
     inkscape:window-maximized="1"
     inkscape:snap-bbox="true"
     inkscape:object-nodes="false"
     inkscape:snap-others="false"
     fit-margin-top="0"
     fit-margin-left="0"
     fit-margin-right="0"
     fit-margin-bottom="0"
     inkscape:pagecheckerboard="false"
     inkscape:snap-bbox-midpoints="false"
     inkscape:snap-bbox-edge-midpoints="false"
     inkscape:bbox-nodes="true"
     inkscape:deskcolor="#d1d1d1"
     showguides="false"><inkscape:grid
       type="xygrid"
       id="grid815"
       spacingx="0.52916667"
       spacingy="0.52916667"
       empspacing="1"
       dotted="false"
       originx="0"
       originy="0"
       units="px" /></sodipodi:namedview><metadata
     id="metadata5"><rdf:RDF><cc:Work
         rdf:about=""><dc:format>image/svg+xml</dc:format><dc:type
           rdf:resource="http://purl.org/dc/dcmitype/StillImage" /></cc:Work></rdf:RDF></metadata><g
     inkscape:groupmode="layer"
     id="layer1"
     inkscape:label="Layer 1"><path
       id="path1"
       style="fill:#dcd07c;fill-opacity:1;stroke-width:5.25959;stroke-linecap:round;stroke-linejoin:round"
       d="M 12.219871,9.297659 V 9.65861 H 11.85892 11.49797 v 0.36095 h -0.360951 v 0.360952 h -0.360951 v 0.360949 H 10.415118 10.054168 9.6932163 9.3322661 8.9713152 v 0.360951 h 0.3609509 v 0.360951 h 0.3609502 0.3609517 v 0.360952 0.36095 0.360951 0.36095 0.360951 0.360952 h 0.36095 v 0.360949 0.360951 0.360951 0.360951 0.360951 h 0.36095 v 0.360949 0.360951 h 0.360951 v 0.360951 0.360951 h 0.360951 v 0.360951 h 0.36095 v 0.36095 h 0.360951 v 0.360951 h 0.36095 v 0.360951 h 0.360952 v 0.360951 h 0.360951 v 0.36095 h 0.360949 v 0.360951 h 0.360951 v 0.36095 h 0.360951 v 0.360951 h 0.360951 v 0.360951 h 0.360951 0.36095 v 0.36095 h 0.36095 0.360952 v 0.360952 0.36095 h -0.360952 v 0.36095 0.360951 h -0.36095 v 0.360951 0.360951 h -0.36095 v 0.36095 0.360951 h -0.360951 -0.360951 -0.360951 v 0.36095 0.360952 h 0.360951 0.360951 0.360951 0.36095 0.36095 0.360952 v -0.360952 -0.36095 h -0.360952 v -0.360951 -0.36095 h 0.360952 v -0.360951 -0.360951 h 0.360951 v -0.360951 -0.36095 h 0.36095 v -0.36095 -0.360952 h 0.36095 0.360951 0.360951 0.360951 0.36095 v 0.360952 0.36095 h -0.36095 v 0.36095 0.360951 h -0.360951 v 0.360951 0.360951 h -0.360951 v 0.36095 0.360951 H 17.27318 16.91223 16.55128 v 0.36095 0.360952 h 0.36095 0.36095 0.360951 0.360951 0.360951 0.36095 v -0.360952 -0.36095 h -0.36095 v -0.360951 -0.36095 h 0.36095 v -0.360951 -0.360951 h 0.360951 v -0.360951 -0.36095 h 0.360951 v -0.36095 -0.360952 -0.36095 h 0.36095 V 20.12618 h 0.360951 0.360951 v -0.360951 h 0.360951 0.36095 v -0.36095 h 0.360951 0.360951 v -0.360951 h 0.360951 0.360951 0.36095 0.360951 0.360951 0.360951 0.360951 0.360949 0.360951 0.360951 0.360951 0.360951 0.36095 0.360951 0.360951 v -0.36095 h 0.36095 v -0.360951 -0.360951 h -0.36095 v -0.360951 h -0.360951 -0.360951 -0.36095 v -0.36095 h -0.360951 -0.360951 -0.360951 v -0.360951 h -0.360951 -0.360949 -0.360951 -0.360951 -0.360951 -0.360951 -0.36095 -0.360951 V 16.516673 H 21.96554 v -0.360951 h -0.360951 v -0.360951 h -0.360951 v -0.360949 h -0.36095 V 15.072871 H 20.521737 V 14.71192 h -0.360951 v -0.360951 h -0.360951 v -0.360951 h -0.36095 v -0.360949 h -0.360951 v -0.360952 h -0.360951 v -0.360951 h -0.36095 v -0.36095 h -0.360951 v -0.360951 h -0.360951 v -0.36095 H 17.27318 V 11.463363 H 16.91223 V 11.102412 H 16.55128 V 10.741461 H 16.190329 V 10.380512 H 15.829377 V 10.01956 h -0.36095 V 9.65861 h -0.36095 -0.360951 -0.360951 V 9.297659 h -0.360951 -0.360951 -0.360949 -0.360951 -0.360952 z m 0,1.804753 h 0.36095 0.360952 v 0.360951 0.360952 0.36095 h -0.360952 -0.36095 v -0.36095 -0.360952 z" /></g></svg>
