<?xml version="1.0" encoding="UTF-8" standalone="no"?>
<!-- Created with Inkscape (http://www.inkscape.org/) -->

<svg
   width="128"
   height="128"
   viewBox="0 0 33.866664 33.866666"
   version="1.1"
   id="svg8"
   inkscape:version="1.4 (e7c3feb100, 2024-10-09)"
   sodipodi:docname="txori_icon_outline.svg"
   xml:space="preserve"
   inkscape:export-filename="png/txori_icon_negative..png"
   inkscape:export-xdpi="600"
   inkscape:export-ydpi="600"
   xmlns:inkscape="http://www.inkscape.org/namespaces/inkscape"
   xmlns:sodipodi="http://sodipodi.sourceforge.net/DTD/sodipodi-0.dtd"
   xmlns="http://www.w3.org/2000/svg"
   xmlns:svg="http://www.w3.org/2000/svg"
   xmlns:rdf="http://www.w3.org/1999/02/22-rdf-syntax-ns#"
   xmlns:cc="http://creativecommons.org/ns#"
   xmlns:dc="http://purl.org/dc/elements/1.1/"><defs
     id="defs2" /><sodipodi:namedview
     id="base"
     pagecolor="#ffffff"
     bordercolor="#666666"
     borderopacity="1.0"
     inkscape:pageopacity="0.0"
     inkscape:pageshadow="2"
     inkscape:zoom="3.6203867"
     inkscape:cx="51.375727"
     inkscape:cy="56.071358"
     inkscape:document-units="px"
     inkscape:current-layer="layer1"
     showgrid="true"
     units="px"
     borderlayer="true"
     inkscape:showpageshadow="false"
     inkscape:window-width="1680"
     inkscape:window-height="1000"
     inkscape:window-x="0"
     inkscape:window-y="0"
     inkscape:window-maximized="1"
     inkscape:snap-bbox="true"
     inkscape:object-nodes="false"
     inkscape:snap-others="false"
     fit-margin-top="0"
     fit-margin-left="0"
     fit-margin-right="0"
     fit-margin-bottom="0"
     inkscape:pagecheckerboard="false"
     inkscape:snap-bbox-midpoints="false"
     inkscape:snap-bbox-edge-midpoints="false"
     inkscape:bbox-nodes="true"
     inkscape:deskcolor="#d1d1d1"
     showguides="false"><inkscape:grid
       type="xygrid"
       id="grid815"
       spacingx="0.52916667"
       spacingy="0.52916667"
       empspacing="1"
       dotted="false"
       originx="0"
       originy="0"
       units="px" /></sodipodi:namedview><metadata
     id="metadata5"><rdf:RDF><cc:Work
         rdf:about=""><dc:format>image/svg+xml</dc:format><dc:type
           rdf:resource="http://purl.org/dc/dcmitype/StillImage" /></cc:Work></rdf:RDF></metadata><g
     inkscape:groupmode="layer"
     id="layer1"
     inkscape:label="Layer 1"><path
       id="rect914"
       style="fill:#dcd07c;fill-opacity:1;stroke-width:5.27919;stroke-linecap:round;stroke-linejoin:round"
       d="M 1.0583333 0 L 1.0583333 1.0583333 L 0 1.0583333 L 0 32.808332 L 1.0583333 32.808332 L 1.0583333 33.866665 L 32.808332 33.866665 L 32.808332 32.808332 L 33.866665 32.808332 L 33.866665 1.0583333 L 32.808332 1.0583333 L 32.808332 0 L 1.0583333 0 z M 2.1166666 1.0583333 L 31.749998 1.0583333 L 31.749998 2.1166666 L 32.808332 2.1166666 L 32.808332 31.749998 L 32.279165 31.749998 L 31.749998 31.749998 L 31.749998 32.279165 L 31.749998 32.808332 L 2.1166666 32.808332 L 2.1166666 31.749998 L 1.0583333 31.749998 L 1.0583333 2.1166666 L 1.5874999 2.1166666 L 2.1166666 2.1166666 L 2.1166666 1.5874999 L 2.1166666 1.0583333 z M 8.4666662 6.8791663 L 8.4666662 7.408333 L 7.9374996 7.408333 L 7.408333 7.408333 L 7.408333 7.9374996 L 6.8791663 7.9374996 L 6.8791663 8.4666662 L 6.3499997 8.4666662 L 6.3499997 8.9958329 L 5.820833 8.9958329 L 5.2916664 8.9958329 L 4.7624998 8.9958329 L 4.2333331 8.9958329 L 3.7041665 8.9958329 L 3.7041665 9.5249995 L 4.2333331 9.5249995 L 4.2333331 10.054166 L 4.7624998 10.054166 L 5.2916664 10.054166 L 5.2916664 10.583333 L 5.2916664 11.112499 L 5.2916664 11.641666 L 5.2916664 12.170833 L 5.2916664 12.699999 L 5.2916664 13.229166 L 5.820833 13.229166 L 5.820833 13.758333 L 5.820833 14.287499 L 5.820833 14.816666 L 5.820833 15.345833 L 5.820833 15.874999 L 6.3499997 15.874999 L 6.3499997 16.404166 L 6.3499997 16.933332 L 6.8791663 16.933332 L 6.8791663 17.462499 L 6.8791663 17.991666 L 7.408333 17.991666 L 7.408333 18.520832 L 7.9374996 18.520832 L 7.9374996 19.049999 L 8.4666662 19.049999 L 8.4666662 19.579166 L 8.9958329 19.579166 L 8.9958329 20.108332 L 9.5249995 20.108332 L 9.5249995 20.637499 L 10.054166 20.637499 L 10.054166 21.166666 L 10.583333 21.166666 L 10.583333 21.695832 L 11.112499 21.695832 L 11.112499 22.224999 L 11.641666 22.224999 L 11.641666 22.754166 L 12.170833 22.754166 L 12.170833 23.283332 L 12.699999 23.283332 L 13.229166 23.283332 L 13.229166 23.812499 L 13.758333 23.812499 L 14.287499 23.812499 L 14.287499 24.341665 L 14.287499 24.870832 L 13.758333 24.870832 L 13.758333 25.399999 L 13.758333 25.929165 L 13.229166 25.929165 L 13.229166 26.458332 L 13.229166 26.987499 L 12.699999 26.987499 L 12.699999 27.516665 L 12.699999 28.045832 L 12.170833 28.045832 L 11.641666 28.045832 L 11.112499 28.045832 L 11.112499 28.574999 L 11.112499 29.104165 L 11.641666 29.104165 L 12.170833 29.104165 L 12.699999 29.104165 L 13.229166 29.104165 L 13.758333 29.104165 L 14.287499 29.104165 L 14.287499 28.574999 L 14.287499 28.045832 L 13.758333 28.045832 L 13.758333 27.516665 L 13.758333 26.987499 L 14.287499 26.987499 L 14.287499 26.458332 L 14.287499 25.929165 L 14.816666 25.929165 L 14.816666 25.399999 L 14.816666 24.870832 L 15.345833 24.870832 L 15.345833 24.341665 L 15.345833 23.812499 L 15.874999 23.812499 L 16.404166 23.812499 L 16.933332 23.812499 L 17.462499 23.812499 L 17.991666 23.812499 L 17.991666 24.341665 L 17.991666 24.870832 L 17.462499 24.870832 L 17.462499 25.399999 L 17.462499 25.929165 L 16.933332 25.929165 L 16.933332 26.458332 L 16.933332 26.987499 L 16.404166 26.987499 L 16.404166 27.516665 L 16.404166 28.045832 L 15.874999 28.045832 L 15.345833 28.045832 L 14.816666 28.045832 L 14.816666 28.574999 L 14.816666 29.104165 L 15.345833 29.104165 L 15.874999 29.104165 L 16.404166 29.104165 L 16.933332 29.104165 L 17.462499 29.104165 L 17.991666 29.104165 L 17.991666 28.574999 L 17.991666 28.045832 L 17.462499 28.045832 L 17.462499 27.516665 L 17.462499 26.987499 L 17.991666 26.987499 L 17.991666 26.458332 L 17.991666 25.929165 L 18.520832 25.929165 L 18.520832 25.399999 L 18.520832 24.870832 L 19.049999 24.870832 L 19.049999 24.341665 L 19.049999 23.812499 L 19.049999 23.283332 L 19.579166 23.283332 L 19.579166 22.754166 L 20.108332 22.754166 L 20.637499 22.754166 L 20.637499 22.224999 L 21.166666 22.224999 L 21.695832 22.224999 L 21.695832 21.695832 L 22.224999 21.695832 L 22.754166 21.695832 L 22.754166 21.166666 L 23.283332 21.166666 L 23.812499 21.166666 L 24.341665 21.166666 L 24.870832 21.166666 L 25.399999 21.166666 L 25.929165 21.166666 L 26.458332 21.166666 L 26.987499 21.166666 L 27.516665 21.166666 L 28.045832 21.166666 L 28.574999 21.166666 L 29.104165 21.166666 L 29.633332 21.166666 L 30.162499 21.166666 L 30.691665 21.166666 L 30.691665 20.637499 L 31.220832 20.637499 L 31.220832 20.108332 L 31.220832 19.579166 L 30.691665 19.579166 L 30.691665 19.049999 L 30.162499 19.049999 L 29.633332 19.049999 L 29.104165 19.049999 L 29.104165 18.520832 L 28.574999 18.520832 L 28.045832 18.520832 L 27.516665 18.520832 L 27.516665 17.991666 L 26.987499 17.991666 L 26.458332 17.991666 L 25.929165 17.991666 L 25.399999 17.991666 L 24.870832 17.991666 L 24.341665 17.991666 L 23.812499 17.991666 L 23.283332 17.991666 L 23.283332 17.462499 L 22.754166 17.462499 L 22.754166 16.933332 L 22.224999 16.933332 L 22.224999 16.404166 L 21.695832 16.404166 L 21.695832 15.874999 L 21.166666 15.874999 L 21.166666 15.345833 L 20.637499 15.345833 L 20.637499 14.816666 L 20.108332 14.816666 L 20.108332 14.287499 L 19.579166 14.287499 L 19.579166 13.758333 L 19.049999 13.758333 L 19.049999 13.229166 L 18.520832 13.229166 L 18.520832 12.699999 L 17.991666 12.699999 L 17.991666 12.170833 L 17.462499 12.170833 L 17.462499 11.641666 L 16.933332 11.641666 L 16.933332 11.112499 L 16.404166 11.112499 L 16.404166 10.583333 L 15.874999 10.583333 L 15.874999 10.054166 L 15.345833 10.054166 L 15.345833 9.5249995 L 14.816666 9.5249995 L 14.816666 8.9958329 L 14.287499 8.9958329 L 14.287499 8.4666662 L 13.758333 8.4666662 L 13.758333 7.9374996 L 13.229166 7.9374996 L 13.229166 7.408333 L 12.699999 7.408333 L 12.170833 7.408333 L 11.641666 7.408333 L 11.641666 6.8791663 L 11.112499 6.8791663 L 10.583333 6.8791663 L 10.054166 6.8791663 L 9.5249995 6.8791663 L 8.9958329 6.8791663 L 8.4666662 6.8791663 z M 8.4666662 7.9374996 L 8.9958329 7.9374996 L 9.5249995 7.9374996 L 10.054166 7.9374996 L 10.583333 7.9374996 L 11.112499 7.9374996 L 11.641666 7.9374996 L 11.641666 8.4666662 L 12.170833 8.4666662 L 12.699999 8.4666662 L 13.229166 8.4666662 L 13.229166 8.9958329 L 13.758333 8.9958329 L 13.758333 9.5249995 L 14.287499 9.5249995 L 14.287499 10.054166 L 14.816666 10.054166 L 14.816666 10.583333 L 15.345833 10.583333 L 15.345833 11.112499 L 15.874999 11.112499 L 15.874999 11.641666 L 16.404166 11.641666 L 16.404166 12.170833 L 16.933332 12.170833 L 16.933332 12.699999 L 17.462499 12.699999 L 17.462499 13.229166 L 17.991666 13.229166 L 17.991666 13.758333 L 18.520832 13.758333 L 18.520832 14.287499 L 19.049999 14.287499 L 19.049999 14.816666 L 19.579166 14.816666 L 19.579166 15.345833 L 20.108332 15.345833 L 20.108332 15.874999 L 20.637499 15.874999 L 20.637499 16.404166 L 21.166666 16.404166 L 21.166666 16.933332 L 21.695832 16.933332 L 21.695832 17.462499 L 22.224999 17.462499 L 22.224999 17.991666 L 22.754166 17.991666 L 22.754166 18.520832 L 23.283332 18.520832 L 23.283332 19.049999 L 23.812499 19.049999 L 24.341665 19.049999 L 24.870832 19.049999 L 25.399999 19.049999 L 25.929165 19.049999 L 26.458332 19.049999 L 26.987499 19.049999 L 27.516665 19.049999 L 27.516665 19.579166 L 28.045832 19.579166 L 28.574999 19.579166 L 29.104165 19.579166 L 29.104165 20.108332 L 28.574999 20.108332 L 28.045832 20.108332 L 27.516665 20.108332 L 26.987499 20.108332 L 26.458332 20.108332 L 25.929165 20.108332 L 25.399999 20.108332 L 24.870832 20.108332 L 24.341665 20.108332 L 23.812499 20.108332 L 23.283332 20.108332 L 22.754166 20.108332 L 22.754166 20.637499 L 22.224999 20.637499 L 21.695832 20.637499 L 21.695832 21.166666 L 21.166666 21.166666 L 20.637499 21.166666 L 20.637499 21.695832 L 20.108332 21.695832 L 19.579166 21.695832 L 19.579166 22.224999 L 19.049999 22.224999 L 19.049999 22.754166 L 18.520832 22.754166 L 17.991666 22.754166 L 17.462499 22.754166 L 16.933332 22.754166 L 16.404166 22.754166 L 15.874999 22.754166 L 15.345833 22.754166 L 14.816666 22.754166 L 14.287499 22.754166 L 13.758333 22.754166 L 13.229166 22.754166 L 13.229166 22.224999 L 12.699999 22.224999 L 12.170833 22.224999 L 12.170833 21.695832 L 11.641666 21.695832 L 11.641666 21.166666 L 11.112499 21.166666 L 11.112499 20.637499 L 10.583333 20.637499 L 10.583333 20.108332 L 10.054166 20.108332 L 10.054166 19.579166 L 9.5249995 19.579166 L 9.5249995 19.049999 L 8.9958329 19.049999 L 8.9958329 18.520832 L 8.4666662 18.520832 L 8.4666662 17.991666 L 7.9374996 17.991666 L 7.9374996 17.462499 L 7.9374996 16.933332 L 7.408333 16.933332 L 7.408333 16.404166 L 7.408333 15.874999 L 6.8791663 15.874999 L 6.8791663 15.345833 L 6.8791663 14.816666 L 6.8791663 14.287499 L 6.8791663 13.758333 L 6.8791663 13.229166 L 6.3499997 13.229166 L 6.3499997 12.699999 L 6.3499997 12.170833 L 6.3499997 11.641666 L 6.3499997 11.112499 L 6.3499997 10.583333 L 6.3499997 10.054166 L 6.3499997 9.5249995 L 6.8791663 9.5249995 L 6.8791663 8.9958329 L 7.408333 8.9958329 L 7.408333 8.4666662 L 7.9374996 8.4666662 L 8.4666662 8.4666662 L 8.4666662 7.9374996 z M 8.4666662 9.5249995 L 8.4666662 10.054166 L 8.4666662 10.583333 L 8.4666662 11.112499 L 8.9958329 11.112499 L 9.5249995 11.112499 L 9.5249995 10.583333 L 9.5249995 10.054166 L 9.5249995 9.5249995 L 8.9958329 9.5249995 L 8.4666662 9.5249995 z " /></g></svg>
